<svg version="1.1" id="Layer_1" xmlns="http://www.w3.org/2000/svg" xmlns:xlink="http://www.w3.org/1999/xlink" x="0px" y="0px"
	 width="100%" viewBox="0 0 1024 1024" enable-background="new 0 0 1024 1024" xml:space="preserve">
<path fill="#000000" opacity="1.000000" stroke="none" 
	d="
M446.463806,776.578918 
	C431.822266,765.107544 419.761047,751.458679 406.966675,738.591431 
	C378.419434,709.881531 349.925873,681.115112 321.702698,652.087463 
	C306.551300,636.504211 293.461304,619.499451 284.984528,599.032471 
	C269.986298,562.819458 270.276031,526.803223 284.636017,490.728882 
	C294.854370,465.058960 311.643250,443.861084 330.866852,424.346985 
	C367.462830,387.198059 404.095062,350.080658 440.301056,312.553467 
	C458.758972,293.421997 478.496124,276.322540 503.352264,266.080444 
	C526.723145,256.450378 550.812622,252.673843 576.110779,256.427795 
	C615.445618,262.264587 648.540222,279.447174 674.319153,309.760315 
	C693.420471,332.221222 704.781982,358.310669 708.402893,387.747467 
	C713.241516,427.083649 701.533264,461.615387 678.698242,493.115356 
	C661.463501,516.890015 639.453796,536.173889 618.889954,556.793335 
	C584.535645,591.240479 549.899292,625.407776 515.229553,659.538330 
	C503.729736,670.859253 492.500702,682.512207 479.546906,692.263733 
	C477.316925,693.942505 475.141083,695.732178 471.940887,696.061401 
	C471.359375,693.624023 473.271759,692.952515 474.459595,692.196655 
	C487.266083,684.047241 496.909912,672.440369 507.538208,661.936218 
	C522.417969,647.230347 537.168274,632.388184 551.730957,617.368713 
	C560.737122,608.080017 569.123779,598.191650 578.101135,588.873657 
	C585.701111,580.985229 593.265686,572.939636 601.702698,566.006226 
	C618.733154,552.010864 635.195984,537.474731 650.294800,521.397278 
	C662.351135,508.559448 674.216736,495.527588 683.811340,480.729034 
	C694.303711,464.545868 701.618469,447.044434 705.204773,427.873108 
	C707.755920,414.235748 707.912048,400.465576 706.180359,387.142273 
	C702.762939,360.849762 692.596375,336.795074 676.009644,315.819794 
	C663.705627,300.260284 649.147339,287.140350 631.730225,277.508789 
	C610.336914,265.678436 587.705505,257.354126 562.892639,258.577087 
	C552.803345,259.074310 542.735046,257.343781 532.565247,259.721802 
	C511.764526,264.585632 492.070557,271.599884 475.010773,284.822845 
	C461.868866,295.009094 450.076385,306.592896 438.512421,318.553650 
	C432.496002,324.776550 431.098328,333.175537 425.527527,339.284119 
	C418.472504,347.020172 411.604675,354.817200 403.520386,361.661560 
	C395.836060,368.167297 388.225922,374.886017 381.042542,382.066345 
	C374.377380,388.728668 367.745178,395.708588 360.236450,401.314178 
	C333.263092,421.450928 301.015350,459.595490 290.195740,483.647675 
	C280.685791,504.788483 276.105286,526.764221 276.660217,549.953613 
	C277.571136,588.018616 293.679352,619.445435 319.495453,646.104675 
	C357.274323,685.117432 395.767822,723.438049 433.941803,762.068359 
	C451.926727,780.268250 473.025391,793.465088 498.121185,798.679443 
	C511.062286,801.368408 524.615234,803.925293 537.915527,800.842224 
	C554.157043,797.077332 570.950623,795.042542 585.594543,785.774170 
	C597.060425,778.517151 607.736450,770.487915 617.237305,760.758057 
	C623.875427,753.960022 630.243652,746.989197 636.235840,739.611450 
	C656.815735,714.273193 664.758667,685.253723 660.249023,653.241150 
	C658.056458,637.676453 651.858826,623.117676 642.361877,610.268921 
	C638.703735,605.319641 635.126343,600.296326 631.213257,595.553406 
	C626.358398,589.668884 623.933044,589.409119 617.987427,594.461914 
	C612.664734,598.985413 607.694275,603.932434 602.683228,608.810608 
	C598.386047,612.993774 594.506775,617.639160 589.984680,621.550720 
	C583.231079,627.392456 582.850708,636.468079 587.923035,642.724731 
	C590.275391,645.626343 589.266174,651.062683 594.728149,651.530396 
	C594.194519,654.140198 594.388000,656.572998 595.061890,659.024536 
	C600.226929,677.814575 593.323669,693.138794 580.946533,706.664490 
	C574.776062,713.407532 568.208130,719.832458 560.944275,725.409241 
	C558.676086,727.150696 555.585510,727.832947 552.853271,728.955872 
	C542.364075,733.266724 531.414185,735.908264 520.184204,733.932129 
	C509.964996,732.133911 500.626068,727.649231 492.688110,720.638000 
	C486.698517,715.347534 480.532440,710.256165 474.567566,704.938660 
	C472.424530,703.028137 469.837036,701.275879 469.378357,697.964844 
	C471.347748,697.196411 471.887329,698.866089 472.779114,699.605957 
	C482.129578,707.363342 490.379303,716.406250 500.559448,723.201904 
	C519.901001,736.113159 548.514832,733.842834 565.451843,717.916931 
	C572.717957,711.084656 580.292297,704.587891 585.673889,695.934998 
	C596.707092,678.195007 596.372437,660.807983 584.849609,643.506226 
	C583.649170,641.703857 582.479126,639.880554 581.329529,638.045288 
	C578.546509,633.602356 579.081238,629.354858 582.657654,625.740479 
	C593.790283,614.489929 604.904114,603.212830 616.325562,592.259155 
	C622.734619,586.112671 626.491211,586.081177 631.609192,591.856812 
	C646.186951,608.307861 657.676086,626.715027 661.693298,648.553711 
	C668.180298,683.818359 659.343262,715.493225 636.719360,743.248901 
	C623.408447,759.579163 608.938049,774.709534 590.704224,785.747498 
	C565.940979,800.737915 539.277466,806.898315 510.410156,803.547974 
	C486.558319,800.779663 465.799622,790.872253 446.463806,776.578918 
z"/>
<path fill="#000000" opacity="1.000000" stroke="none" 
	d="
M345.519226,546.692139 
	C344.935730,537.937866 346.346558,529.734070 347.786713,521.628479 
	C348.378235,518.299316 351.361511,515.443298 353.010803,512.245239 
	C358.993835,500.643982 368.167175,491.671021 377.210480,482.583679 
	C394.702087,465.006866 412.446533,447.672882 429.606384,429.778168 
	C439.212006,419.761230 449.837433,410.762512 458.967102,400.334351 
	C467.169159,390.965698 477.117157,383.477448 485.559113,374.408051 
	C487.362701,372.470367 489.515594,370.829865 490.199677,368.044464 
	C490.383362,367.296539 490.878540,366.343964 491.504547,366.028290 
	C499.919312,361.784698 504.906189,353.644928 512.088745,348.041504 
	C517.744446,343.629211 522.471741,337.535950 529.374146,335.340637 
	C534.684326,333.651733 539.858398,330.923920 546.045227,331.677094 
	C552.608154,332.476044 559.406982,332.544342 565.979004,331.815369 
	C580.603638,330.193237 591.875488,337.677490 602.585815,345.406097 
	C620.022888,357.988708 630.775696,375.226990 634.190491,396.777313 
	C634.826599,400.792023 638.045898,404.399872 636.610840,408.758728 
	C635.479614,412.194305 634.900757,415.802917 633.882629,419.126343 
	C632.717346,422.929718 632.964417,427.014313 630.566711,430.795227 
	C627.250061,436.025177 625.505554,442.180878 620.994019,446.860199 
	C617.777344,450.196594 615.162903,454.113617 612.300110,457.745728 
	C615.483093,459.681763 613.386902,461.423157 611.951904,462.881073 
	C606.707214,468.209656 601.409790,473.489929 596.017334,478.668793 
	C579.445129,494.584686 564.175598,511.774658 547.951538,528.003906 
	C534.323608,541.636169 520.651978,555.242798 506.935944,568.796326 
	C500.080261,575.570740 493.732697,582.818298 486.769592,589.519531 
	C479.669464,596.352722 472.511261,603.427246 464.293549,608.373169 
	C455.559753,613.629700 447.802368,620.502258 438.048615,624.271240 
	C423.000824,630.085754 408.340973,629.322632 395.001587,620.977234 
	C379.341461,611.179749 366.959351,597.575500 356.436310,582.369080 
	C349.095001,571.760498 345.954834,559.864380 345.519226,546.692139 
M561.866882,504.367798 
	C579.046082,486.686920 597.236694,469.992615 613.724487,451.642487 
	C635.959717,426.895660 637.762146,392.445953 618.876526,365.096344 
	C592.831909,327.379333 537.576965,324.461365 508.196472,355.218689 
	C468.725006,396.539734 427.475006,436.158295 387.202393,476.720062 
	C376.457855,487.541687 364.161011,497.009979 356.627563,510.798340 
	C348.072235,526.457031 344.572083,542.816284 349.390015,560.308105 
	C356.435730,585.888000 374.680878,602.785767 395.033325,617.787048 
	C403.025177,623.677551 412.558929,626.178162 422.423431,625.351379 
	C436.589203,624.164062 448.483185,617.594238 458.453766,607.662048 
	C492.804230,573.443665 527.068665,539.138916 561.866882,504.367798 
z"/>
<path fill="#000000" opacity="1.000000" stroke="none" 
	d="
M458.137634,527.297302 
	C433.994537,520.755432 426.668732,493.469879 444.163452,475.539703 
	C461.949341,457.311096 479.503235,438.868652 496.929626,420.300842 
	C501.028534,415.933472 504.944183,411.390106 509.127686,407.106934 
	C518.206421,397.811859 535.272827,395.547424 547.190247,401.912415 
	C560.046326,408.778687 566.921875,422.552887 563.996338,436.176147 
	C562.635010,442.515503 559.025818,447.776733 554.538940,452.343658 
	C533.194458,474.069153 511.827454,495.772827 490.386658,517.403198 
	C481.584412,526.283264 471.023102,529.969727 458.137634,527.297302 
M502.551483,501.025787 
	C507.560150,495.941223 512.310547,490.528534 517.156128,485.374329 
	C528.534302,473.271545 541.226013,462.353790 551.257202,448.895355 
	C554.951782,443.938446 557.545898,438.377502 561.360291,433.554474 
	C562.689819,431.873474 562.578613,429.329803 562.165894,427.239929 
	C560.042786,416.489716 554.661011,407.434509 544.289551,403.609344 
	C535.212524,400.261597 525.410583,401.373169 516.278870,405.187836 
	C510.825958,407.465576 507.641968,412.374634 503.935791,416.589874 
	C496.327332,425.243378 490.476288,435.565582 481.740051,443.029785 
	C471.602020,451.691772 462.036194,460.885437 452.837158,470.449280 
	C447.908051,475.573883 442.919373,480.430054 439.825409,487.639465 
	C435.239349,498.325500 437.190521,506.918152 443.473419,515.270203 
	C446.209686,518.907776 449.988312,522.099976 455.040283,522.352722 
	C462.307373,522.716187 469.534668,522.009399 476.745911,521.120361 
	C478.428497,520.912842 479.813904,520.353516 481.320740,519.500122 
	C489.459595,514.890625 495.203278,507.585724 502.551483,501.025787 
z"/>
</svg>