<svg width="800" height="560" viewBox="0 0 800 560" fill="none" xmlns="http://www.w3.org/2000/svg">
  <rect width="800" height="560" rx="24" fill="#0EA5E9" opacity="0.06"/>
  <g>
    <circle cx="190" cy="180" r="64" fill="#4F46E5" opacity="0.12"/>
    <circle cx="190" cy="180" r="58" stroke="#4F46E5" stroke-width="2" fill="none"/>
    <path d="M170 180h40M190 162v36" stroke="#4F46E5" stroke-width="3" stroke-linecap="round"/>
  </g>
  <g>
    <rect x="320" y="120" width="280" height="180" rx="16" fill="#06B6D4" opacity="0.08"/>
    <rect x="320" y="120" width="280" height="180" rx="16" stroke="#06B6D4" stroke-width="2" fill="none"/>
    <rect x="340" y="150" width="120" height="16" rx="8" fill="#4F46E5" opacity="0.5"/>
    <rect x="340" y="180" width="220" height="12" rx="6" fill="#0EA5E9" opacity="0.5"/>
    <rect x="340" y="205" width="180" height="12" rx="6" fill="#0EA5E9" opacity="0.35"/>
    <rect x="340" y="230" width="140" height="12" rx="6" fill="#0EA5E9" opacity="0.25"/>
  </g>
  <g>
    <circle cx="640" cy="340" r="46" fill="#4F46E5" opacity="0.12"/>
    <circle cx="640" cy="340" r="42" stroke="#4F46E5" stroke-width="2" fill="none"/>
    <path d="M620 340l16 16 24-24" stroke="#4F46E5" stroke-width="3" stroke-linecap="round" stroke-linejoin="round"/>
  </g>
  <g>
    <circle cx="140" cy="380" r="8" fill="#4F46E5"/>
    <circle cx="220" cy="320" r="8" fill="#06B6D4"/>
    <circle cx="280" cy="420" r="8" fill="#4F46E5"/>
    <circle cx="360" cy="360" r="8" fill="#06B6D4"/>
    <circle cx="440" cy="420" r="8" fill="#4F46E5"/>
    <circle cx="520" cy="300" r="8" fill="#06B6D4"/>
  </g>
</svg>

